<svg width="16" height="16" viewBox="0 0 16 16" fill="none" xmlns="http://www.w3.org/2000/svg">
<path d="M3 3L6.08579 3L8.08579 5H13C13.5523 5 14 5.44772 14 6V8H15V6C15 4.89543 14.1046 4 13 4H8.5L6.79289 2.29289C6.60536 2.10536 6.351 2 6.08579 2H3C1.89543 2 1 2.89543 1 4V12C1 13.1046 1.89543 14 3 14H8V13H3C2.44772 13 2 12.5523 2 12V4C2 3.44772 2.44772 3 3 3Z" fill="#CED0D6"/>
<path d="M10.5 11C10.5 10.7239 10.7239 10.5 11 10.5H14C14.2761 10.5 14.5 10.7239 14.5 11V13.5C14.5 13.7761 14.2761 14 14 14H11C10.7239 14 10.5 13.7761 10.5 13.5V11Z" fill="#548AF7"/>
<circle cx="11.5" cy="11.5" r="0.5" fill="#CED0D6"/>
<path d="M10.5 13.5L11.5 12.5L12.5 13.5L14 11.5" stroke="#CED0D6" stroke-width="0.8" stroke-linecap="round" stroke-linejoin="round"/>
</svg>
